<?xml version="1.0" encoding="utf-8"?>
<!-- Generator: Adobe Illustrator 23.0.6, SVG Export Plug-In . SVG Version: 6.00 Build 0)  -->
<svg version="1.1" id="圖層_1" xmlns="http://www.w3.org/2000/svg" xmlns:xlink="http://www.w3.org/1999/xlink" x="0px" y="0px"
	 viewBox="0 0 160 17" style="enable-background:new 0 0 160 17;" xml:space="preserve">
<style type="text/css">
	.st0{fill:#FFFFFF;}
</style>
<g>
	<path class="st0" d="M2.6,6.2v0.7c0,3.1-0.4,5.9-1.1,8.5L0,14.6c0.7-2.4,1.1-5,1.1-7.8V1.6c0-0.3,0.1-0.5,0.3-0.5
		c2.1-0.2,4-0.6,5.7-1l0.7,1.5c-1.6,0.5-3.3,0.8-5,1c-0.2,0-0.3,0.1-0.2,0.3v1.9h4.9v1.5H5.8v9.8H4.3V6.2H2.6z M7.7,16l-1.2-1
		C9.6,13,11.1,9.7,11.2,5V3.1h-1.1C9.8,5.4,9.2,7.3,8.3,8.9L6.9,8.5c1.3-2.7,2-5.4,2-8.2h1.5c0,0.5-0.1,1-0.1,1.4h5.3l1,0.6
		c-0.3,2.3-0.7,4.5-1.3,6.4l-1.5-0.3c0.2-0.7,0.4-1.3,0.6-1.8c0.5-2.1,0.7-3.2,0.6-3.4c0,0-0.1-0.1-0.2-0.1h-2.1V5v0.2
		c0,0.3,0,0.6,0,0.9c0.2,3.3,1.5,6.3,4,9.1L15.2,16c-1.7-2.1-2.8-4.1-3.3-6C11.2,12.4,9.8,14.4,7.7,16"/>
	<path class="st0" d="M22.1,8l-1.5-0.5c1.6-2.3,2.5-4.8,2.7-7.5l1.5,0.2C24.7,1.7,24.4,3,24,4.1v12h-1.4V7.3
		C22.4,7.6,22.3,7.8,22.1,8 M25.1,12.8v-1.2h8.5v-1.1l-8.4,0.4L25,9.6l5.1-0.2v-1h-4.4c-0.2,0-0.3-0.1-0.3-0.4V3.4
		c0-0.2,0.1-0.3,0.3-0.3h4.4v-1h-4.7V0.9h4.7V0h1.4v0.9h5.3v1.2h-5.3v1h4.6c0.2,0,0.4,0.1,0.4,0.3V8c0,0.2-0.1,0.4-0.4,0.4H36l1.4,2
		l-1.1,0.7l-0.5-0.8L35,10.4v1.2h2v1.2h-2v1.6c0,0.6-0.3,1.1-0.8,1.4c-0.5,0.3-1.4,0.3-2.7,0.1l-0.1-1.5c1,0.3,1.7,0.3,2,0.1
		c0.1-0.1,0.2-0.2,0.2-0.5v-1.2H25.1z M30.1,4.3h-3.2c0,0-0.1,0-0.1,0.1v0.8h3.3L30.1,4.3L30.1,4.3z M30.1,6.3h-3.3v0.8
		c0,0,0,0.1,0.1,0.1h3.2L30.1,6.3L30.1,6.3z M28.6,12.9c0.1,0.2,0.4,0.5,0.7,0.9c0.3,0.4,0.6,0.8,0.8,1.1L29,15.6
		c-0.5-0.8-1-1.4-1.5-1.9L28.6,12.9z M31.6,5.1h3.5V4.4c0,0,0-0.1-0.1-0.1h-3.5L31.6,5.1L31.6,5.1z M31.6,7.1H35c0,0,0.1,0,0.1-0.1
		V6.3h-3.5L31.6,7.1L31.6,7.1z M35,8.3h-3.5v0.9l3.3-0.2l-0.3-0.4L35,8.3z"/>
	<path class="st0" d="M42.6,9.7c-0.2-0.2-0.2-0.5,0-0.9c0.3-0.7,0.7-2.3,1.2-4.8h-1.1V2.5H44c0.1-0.8,0.2-1.6,0.3-2.5l1.4,0.2
		c-0.1,0.8-0.2,1.6-0.3,2.3h2.3c0.2,0,0.3,0.2,0.3,0.4c-0.2,3.8-0.7,6.6-1.5,8.3l1.5,1.3l-0.8,1.2L46,12.6c-0.6,1.1-1.4,2.2-2.5,3.2
		l-1.4-0.9c1.3-1.1,2.2-2.3,2.7-3.4L42.6,9.7z M46.6,4h-1.3c-0.1,0.7-0.5,2.1-0.9,4c-0.2,0.7-0.3,1.1-0.1,1.2l1.2,1
		c0.3-0.7,0.5-1.6,0.8-2.7C46.4,6.5,46.5,5.3,46.6,4 M48.4,10.5V9.1h4V7.9h-2.1c-0.4,0-0.7-0.2-0.7-0.7V2.6h-1.3V1.3h1.3V0H51v1.2
		h4.4V0h1.4v1.2H58v1.3h-1.2v4.7c0,0.4-0.2,0.7-0.7,0.7h-2.3v1.2h4.3v1.3h-4c1,1.5,2.5,2.8,4.4,3.9l-1.2,1c-1.4-1-2.5-2-3.4-2.9
		c-0.1-0.1-0.2-0.2-0.3-0.3V16h-1.4v-4.2c-1.3,1.6-2.6,2.7-3.9,3.4l-1.1-1.1c1.7-1,3.2-2.2,4.4-3.7C51.8,10.5,48.4,10.5,48.4,10.5z
		 M55.4,2.6H51v1.3h4.4V2.6z M51,6.4c0,0.1,0.1,0.2,0.2,0.2h3.9c0.1,0,0.2-0.1,0.2-0.2V5.2H51L51,6.4L51,6.4z"/>
	<path class="st0" d="M76.2,3.5l-2.7,3.4l0.3,0.5c0.8,1.2,1.5,2.4,2.3,3.7c0.8,1.4,1.6,2.6,2.2,3.8c-0.3,0-0.5,0-0.7,0
		c-0.8-0.1-1.2-0.1-1.3-0.1c-0.3,0-0.6,0-1.1,0.1c-0.5,0-0.8,0-0.9,0c-0.5-1-1-1.8-1.5-2.6c-0.7-1.2-1.2-2-1.6-2.6l-2.1,3
		c-0.1,0.2-0.4,0.6-0.8,1.2c-0.3,0.4-0.5,0.8-0.6,1.1l-1.2-0.1l-1.2,0.1c0.8-1,1.7-2.1,2.6-3.3c0.9-1.2,1.8-2.3,2.4-3.3l-4.7-7.6
		c0.3,0,0.7,0,1.2,0.1c0.5,0,0.8,0.1,0.9,0.1c0.3,0,0.7,0,1.2-0.1c0.5,0,0.8-0.1,0.9-0.1c0.4,0.8,1,1.8,1.8,3.1
		c0.4,0.6,0.7,1.3,1.1,1.9c1.2-1.7,2.3-3.3,3.5-5l1.1,0.1l1.2-0.1L76.2,3.5z"/>
	<path class="st0" d="M82.6,0.7c0.5,0,0.9,0.1,1.2,0.4c0.3,0.3,0.5,0.6,0.5,1.1c0,0.4-0.2,0.8-0.5,1.1c-0.3,0.3-0.7,0.4-1.2,0.4
		c-0.5,0-0.9-0.1-1.2-0.4c-0.3-0.3-0.5-0.6-0.5-1.1c0-0.4,0.2-0.7,0.5-1C81.7,0.9,82.1,0.7,82.6,0.7 M81.1,5.7c0.2,0,0.5,0,0.8,0.1
		c0.3,0,0.5,0,0.6,0c0.3,0,0.6,0,0.9,0s0.5,0,0.6-0.1v9.2c-0.2,0-0.4,0-0.5,0c-0.5,0-0.8-0.1-0.9-0.1c-0.3,0-0.6,0-0.8,0
		c-0.3,0-0.5,0-0.6,0.1L81.1,5.7L81.1,5.7z"/>
	<path class="st0" d="M87.3,5.7c0.2,0,0.5,0,0.8,0.1c0.3,0,0.5,0,0.6,0c0.3,0,0.6,0,0.8,0s0.4,0,0.6-0.1v1.4C90.6,6.6,91,6.2,91.5,6
		c0.6-0.3,1.2-0.5,1.8-0.5c1.3,0,2.2,0.3,2.7,1c0.5,0.6,0.7,1.5,0.7,2.8v5.6c-0.2,0-0.4,0-0.5,0c-0.5,0-0.8-0.1-0.9-0.1
		c-0.3,0-0.6,0-0.9,0c-0.3,0-0.5,0-0.6,0.1v-4.7c0-1-0.1-1.8-0.3-2.2c-0.3-0.6-0.8-0.9-1.4-0.9c-0.8,0-1.3,0.4-1.6,1.3
		c-0.2,0.5-0.2,1.2-0.2,2.2v4.4c-0.2,0-0.4,0-0.5,0c-0.5,0-0.8-0.1-0.9-0.1c-0.3,0-0.6,0-0.9,0c-0.3,0-0.5,0-0.6,0.1L87.3,5.7
		L87.3,5.7z"/>
	<path class="st0" d="M114.3,0.7c0.2,0,0.4,0.1,0.6,0.1c0.2,0,0.3,0,0.4,0s0.3,0,0.5,0c0.2,0,0.4-0.1,0.5-0.1
		c0.2,1.8,0.4,3.5,0.7,5.2c0.4,2.7,0.6,4.3,0.6,4.7c0.2,1.3,0.4,2.7,0.7,4.3c-0.2,0-0.6,0-1-0.1c-0.5,0-0.8-0.1-0.9-0.1
		c-0.3,0-0.6,0-1.1,0.1c-0.4,0-0.7,0.1-0.8,0.1c0-1.3-0.1-2.8-0.3-4.6c-0.2-1.8-0.4-3.4-0.6-5c-0.6,1.1-1.2,2.1-1.7,3.2
		c-0.6,1.1-1.2,2.1-1.7,3.1c-0.4,0.7-0.9,1.8-1.7,3.2c-0.2,0-0.4,0-0.6,0c-0.1,0-0.2,0-0.3,0c-0.5-1-1-2-1.6-3
		c-0.7-1.2-1.2-2.3-1.7-3.1c-0.6-1.1-1.2-2.1-1.8-3.2c-0.2,1.6-0.4,2.7-0.5,3.4c-0.2,1.1-0.3,2.2-0.4,3.2c-0.1,1-0.1,1.9-0.1,2.8
		c-0.2,0-0.5-0.1-0.6-0.1s-0.3,0-0.4,0c-0.2,0-0.4,0-0.6,0c-0.2,0-0.3,0-0.5,0.1c0.3-1.4,0.5-2.8,0.8-4.4c0.2-0.9,0.4-2.4,0.8-4.7
		c0.3-2.2,0.6-4,0.8-5.1c0.2,0,0.4,0.1,0.6,0.1c0.2,0,0.3,0,0.4,0c0.2,0,0.4,0,0.6,0s0.3-0.1,0.4-0.1c0.4,0.8,1,1.8,1.7,3.2
		c0.6,1.1,1.2,2.2,1.8,3.2c0.6,1.1,1.2,2.2,1.8,3.2c0.6-1.1,1.2-2.2,1.7-3c0.6-1.1,1.2-2.2,1.8-3.2C113.3,2.6,113.9,1.5,114.3,0.7"
		/>
	<path class="st0" d="M123.5,10.3c0,1.1,0.2,1.9,0.6,2.5c0.5,0.7,1.3,1,2.3,1c0.4,0,0.9-0.1,1.3-0.2c0.4-0.1,0.8-0.4,1.2-0.6
		l0.3,0.2l-0.5,1.1c-0.9,0.6-1.9,0.9-3,0.9c-1.7,0-3.1-0.4-4-1.3c-0.9-0.9-1.4-2.1-1.4-3.7c0-1.4,0.4-2.5,1.3-3.3
		c0.9-0.8,2.1-1.3,3.6-1.3c1.6,0,2.7,0.5,3.4,1.4c0.6,0.8,0.9,1.9,0.9,3.4L123.5,10.3L123.5,10.3L123.5,10.3z M126.7,9.4
		c0-0.8-0.1-1.4-0.2-1.9c-0.2-0.8-0.6-1.1-1.2-1.1c-0.7,0-1.2,0.4-1.4,1.1c-0.2,0.5-0.3,1.2-0.3,1.9H126.7L126.7,9.4z"/>
	<path class="st0" d="M141.4,14.9c-0.3,0-0.6,0-0.8-0.1c-0.2,0-0.4,0-0.6,0c-0.3,0-0.6,0-0.8,0c-0.2,0-0.4,0-0.6,0.1v-1.7
		c-0.5,1.2-1.5,1.8-2.9,1.8c-1.5,0-2.6-0.5-3.3-1.5c-0.6-0.8-0.9-1.9-0.9-3.3c0-1.3,0.3-2.4,1-3.3c0.7-1,1.8-1.5,3.1-1.5
		c0.7,0,1.2,0.1,1.7,0.3c0.5,0.2,0.9,0.6,1.2,1V0.5c0.2,0,0.5,0,0.8,0.1c0.3,0,0.5,0,0.6,0c0.3,0,0.6,0,0.9,0c0.3,0,0.5,0,0.6-0.1
		L141.4,14.9L141.4,14.9z M134.7,10.4c0,0.9,0.1,1.6,0.3,2.1c0.3,0.9,0.8,1.3,1.6,1.3c0.8,0,1.4-0.5,1.7-1.4
		c0.2-0.6,0.3-1.4,0.3-2.3c0-0.9-0.1-1.6-0.3-2.1c-0.3-0.9-0.8-1.3-1.6-1.3c-0.8,0-1.4,0.4-1.7,1.3C134.8,8.7,134.7,9.5,134.7,10.4"
		/>
	<path class="st0" d="M146.2,0.7c0.5,0,0.9,0.1,1.2,0.4s0.5,0.6,0.5,1.1c0,0.4-0.2,0.8-0.5,1.1c-0.3,0.3-0.7,0.4-1.2,0.4
		c-0.5,0-0.9-0.1-1.2-0.4c-0.3-0.3-0.5-0.6-0.5-1.1c0-0.4,0.2-0.7,0.5-1C145.3,0.9,145.7,0.7,146.2,0.7 M144.7,5.7
		c0.2,0,0.5,0,0.8,0.1c0.3,0,0.5,0,0.6,0c0.3,0,0.6,0,0.9,0c0.3,0,0.5,0,0.6-0.1v9.2c-0.2,0-0.4,0-0.5,0c-0.5,0-0.8-0.1-0.9-0.1
		c-0.3,0-0.6,0-0.9,0c-0.3,0-0.5,0-0.6,0.1L144.7,5.7L144.7,5.7z"/>
	<path class="st0" d="M158.9,13.2c0,0.4,0.1,0.6,0.2,0.7c0.1,0.1,0.4,0.2,0.9,0.2v0.4c-0.3,0.1-0.6,0.2-1,0.3
		c-0.4,0.1-0.7,0.2-0.9,0.2c-0.5,0-0.9-0.1-1.3-0.4c-0.4-0.2-0.6-0.6-0.8-1c-0.3,0.4-0.7,0.8-1.1,1c-0.5,0.2-1,0.4-1.6,0.4
		c-0.9,0-1.6-0.2-2.2-0.6c-0.6-0.5-0.9-1.1-0.9-1.9c0-0.9,0.3-1.5,0.9-1.9c0.5-0.3,1.5-0.7,3-1c0.3-0.1,0.6-0.1,0.8-0.2
		c0.3-0.1,0.6-0.2,0.8-0.3c0.1-0.1,0.2-0.2,0.2-0.3c0.1-0.1,0.1-0.3,0.1-0.4c0-0.4-0.2-0.8-0.6-1.2c-0.4-0.3-0.9-0.5-1.4-0.5
		c-0.6,0-1.2,0.2-1.8,0.5c-0.5,0.3-0.7,0.5-0.8,0.7h-0.1l-0.3-1.2c0.5-0.4,1.1-0.7,1.8-0.9c0.7-0.2,1.4-0.3,2.1-0.3
		c1.1,0,2,0.2,2.7,0.6c0.9,0.5,1.4,1.1,1.4,2L158.9,13.2C158.9,13.2,158.9,13.2,158.9,13.2z M156,9.9c-0.4,0.1-0.8,0.2-1,0.3
		c-0.5,0.2-0.8,0.3-1.1,0.5c-0.3,0.2-0.4,0.4-0.5,0.7c-0.1,0.3-0.1,0.6-0.1,0.9c0,0.4,0.1,0.8,0.3,1.1s0.5,0.4,0.9,0.4
		c0.6,0,1-0.2,1.3-0.7c0.2-0.4,0.3-0.8,0.3-1.4L156,9.9L156,9.9z"/>
</g>
</svg>
